<mxfile host="app.diagrams.net" modified="2024-05-09T01:53:32.131Z" agent="Mozilla/5.0 (Windows NT 10.0; Win64; x64) AppleWebKit/537.36 (KHTML, like Gecko) Chrome/124.0.0.0 Safari/537.36" etag="J4eEocvHCqRpPSAY8srq" version="24.3.1" type="github">
  <diagram name="페이지-1" id="PqLAIXo9RBqWNML3MHSk">
    <mxGraphModel dx="1084" dy="994" grid="1" gridSize="10" guides="1" tooltips="1" connect="1" arrows="1" fold="1" page="1" pageScale="1" pageWidth="827" pageHeight="1169" math="0" shadow="0">
      <root>
        <mxCell id="0" />
        <mxCell id="1" parent="0" />
        <mxCell id="DoQtyo45TK2g_lEqhroI-20" value="Unit" style="swimlane;fontStyle=0;childLayout=stackLayout;horizontal=1;startSize=26;fillColor=none;horizontalStack=0;resizeParent=1;resizeParentMax=0;resizeLast=0;collapsible=1;marginBottom=0;html=1;swimlaneLine=1;" vertex="1" parent="1">
          <mxGeometry x="344" y="110" width="140" height="182" as="geometry" />
        </mxCell>
        <mxCell id="DoQtyo45TK2g_lEqhroI-21" value="UnitID: int&lt;div&gt;&lt;br&gt;&lt;/div&gt;" style="text;strokeColor=none;fillColor=none;align=left;verticalAlign=top;spacingLeft=4;spacingRight=4;overflow=hidden;rotatable=0;points=[[0,0.5],[1,0.5]];portConstraint=eastwest;whiteSpace=wrap;html=1;" vertex="1" parent="DoQtyo45TK2g_lEqhroI-20">
          <mxGeometry y="26" width="140" height="26" as="geometry" />
        </mxCell>
        <mxCell id="DoQtyo45TK2g_lEqhroI-22" value="stats: Stats" style="text;strokeColor=none;fillColor=none;align=left;verticalAlign=top;spacingLeft=4;spacingRight=4;overflow=hidden;rotatable=0;points=[[0,0.5],[1,0.5]];portConstraint=eastwest;whiteSpace=wrap;html=1;" vertex="1" parent="DoQtyo45TK2g_lEqhroI-20">
          <mxGeometry y="52" width="140" height="26" as="geometry" />
        </mxCell>
        <mxCell id="DoQtyo45TK2g_lEqhroI-28" value="isLookLeft: bool" style="text;strokeColor=none;fillColor=none;align=left;verticalAlign=top;spacingLeft=4;spacingRight=4;overflow=hidden;rotatable=0;points=[[0,0.5],[1,0.5]];portConstraint=eastwest;whiteSpace=wrap;html=1;" vertex="1" parent="DoQtyo45TK2g_lEqhroI-20">
          <mxGeometry y="78" width="140" height="26" as="geometry" />
        </mxCell>
        <mxCell id="DoQtyo45TK2g_lEqhroI-23" value="Kill()" style="text;strokeColor=none;fillColor=none;align=left;verticalAlign=top;spacingLeft=4;spacingRight=4;overflow=hidden;rotatable=0;points=[[0,0.5],[1,0.5]];portConstraint=eastwest;whiteSpace=wrap;html=1;fontStyle=1" vertex="1" parent="DoQtyo45TK2g_lEqhroI-20">
          <mxGeometry y="104" width="140" height="26" as="geometry" />
        </mxCell>
        <mxCell id="DoQtyo45TK2g_lEqhroI-25" value="Damage(float)" style="text;strokeColor=none;fillColor=none;align=left;verticalAlign=top;spacingLeft=4;spacingRight=4;overflow=hidden;rotatable=0;points=[[0,0.5],[1,0.5]];portConstraint=eastwest;whiteSpace=wrap;html=1;fontStyle=1" vertex="1" parent="DoQtyo45TK2g_lEqhroI-20">
          <mxGeometry y="130" width="140" height="26" as="geometry" />
        </mxCell>
        <mxCell id="DoQtyo45TK2g_lEqhroI-26" value="Turn&lt;span style=&quot;background-color: initial;&quot;&gt;()&lt;/span&gt;" style="text;strokeColor=none;fillColor=none;align=left;verticalAlign=top;spacingLeft=4;spacingRight=4;overflow=hidden;rotatable=0;points=[[0,0.5],[1,0.5]];portConstraint=eastwest;whiteSpace=wrap;html=1;fontStyle=1" vertex="1" parent="DoQtyo45TK2g_lEqhroI-20">
          <mxGeometry y="156" width="140" height="26" as="geometry" />
        </mxCell>
        <mxCell id="DoQtyo45TK2g_lEqhroI-33" style="edgeStyle=orthogonalEdgeStyle;rounded=0;orthogonalLoop=1;jettySize=auto;html=1;endArrow=block;endFill=1;" edge="1" parent="1" source="DoQtyo45TK2g_lEqhroI-29" target="DoQtyo45TK2g_lEqhroI-20">
          <mxGeometry relative="1" as="geometry">
            <Array as="points">
              <mxPoint x="330" y="330" />
              <mxPoint x="414" y="330" />
            </Array>
          </mxGeometry>
        </mxCell>
        <mxCell id="DoQtyo45TK2g_lEqhroI-29" value="PlayerUnit" style="swimlane;fontStyle=0;childLayout=stackLayout;horizontal=1;startSize=30;horizontalStack=0;resizeParent=1;resizeParentMax=0;resizeLast=0;collapsible=1;marginBottom=0;whiteSpace=wrap;html=1;" vertex="1" parent="1">
          <mxGeometry x="260" y="360" width="140" height="150" as="geometry" />
        </mxCell>
        <mxCell id="DoQtyo45TK2g_lEqhroI-32" value="이동 기능" style="text;strokeColor=none;fillColor=none;align=left;verticalAlign=middle;spacingLeft=4;spacingRight=4;overflow=hidden;points=[[0,0.5],[1,0.5]];portConstraint=eastwest;rotatable=0;whiteSpace=wrap;html=1;" vertex="1" parent="DoQtyo45TK2g_lEqhroI-29">
          <mxGeometry y="30" width="140" height="30" as="geometry" />
        </mxCell>
        <mxCell id="DoQtyo45TK2g_lEqhroI-34" value="조작 기능" style="text;strokeColor=none;fillColor=none;align=left;verticalAlign=middle;spacingLeft=4;spacingRight=4;overflow=hidden;points=[[0,0.5],[1,0.5]];portConstraint=eastwest;rotatable=0;whiteSpace=wrap;html=1;" vertex="1" parent="DoQtyo45TK2g_lEqhroI-29">
          <mxGeometry y="60" width="140" height="30" as="geometry" />
        </mxCell>
        <mxCell id="DoQtyo45TK2g_lEqhroI-35" value="groundCheck()" style="text;strokeColor=none;fillColor=none;align=left;verticalAlign=middle;spacingLeft=4;spacingRight=4;overflow=hidden;points=[[0,0.5],[1,0.5]];portConstraint=eastwest;rotatable=0;whiteSpace=wrap;html=1;" vertex="1" parent="DoQtyo45TK2g_lEqhroI-29">
          <mxGeometry y="90" width="140" height="30" as="geometry" />
        </mxCell>
        <mxCell id="DoQtyo45TK2g_lEqhroI-36" value="..." style="text;strokeColor=none;fillColor=none;align=left;verticalAlign=middle;spacingLeft=4;spacingRight=4;overflow=hidden;points=[[0,0.5],[1,0.5]];portConstraint=eastwest;rotatable=0;whiteSpace=wrap;html=1;" vertex="1" parent="DoQtyo45TK2g_lEqhroI-29">
          <mxGeometry y="120" width="140" height="30" as="geometry" />
        </mxCell>
        <mxCell id="DoQtyo45TK2g_lEqhroI-42" style="edgeStyle=orthogonalEdgeStyle;rounded=0;orthogonalLoop=1;jettySize=auto;html=1;" edge="1" parent="1" source="DoQtyo45TK2g_lEqhroI-37" target="DoQtyo45TK2g_lEqhroI-20">
          <mxGeometry relative="1" as="geometry">
            <Array as="points">
              <mxPoint x="484" y="330" />
              <mxPoint x="414" y="330" />
            </Array>
          </mxGeometry>
        </mxCell>
        <mxCell id="DoQtyo45TK2g_lEqhroI-37" value="적 유닛1" style="swimlane;fontStyle=0;childLayout=stackLayout;horizontal=1;startSize=30;horizontalStack=0;resizeParent=1;resizeParentMax=0;resizeLast=0;collapsible=1;marginBottom=0;whiteSpace=wrap;html=1;" vertex="1" parent="1">
          <mxGeometry x="414" y="360" width="140" height="90" as="geometry" />
        </mxCell>
        <mxCell id="DoQtyo45TK2g_lEqhroI-40" value="FSM" style="text;strokeColor=none;fillColor=none;align=left;verticalAlign=middle;spacingLeft=4;spacingRight=4;overflow=hidden;points=[[0,0.5],[1,0.5]];portConstraint=eastwest;rotatable=0;whiteSpace=wrap;html=1;" vertex="1" parent="DoQtyo45TK2g_lEqhroI-37">
          <mxGeometry y="30" width="140" height="30" as="geometry" />
        </mxCell>
        <mxCell id="DoQtyo45TK2g_lEqhroI-41" value="..." style="text;strokeColor=none;fillColor=none;align=left;verticalAlign=middle;spacingLeft=4;spacingRight=4;overflow=hidden;points=[[0,0.5],[1,0.5]];portConstraint=eastwest;rotatable=0;whiteSpace=wrap;html=1;" vertex="1" parent="DoQtyo45TK2g_lEqhroI-37">
          <mxGeometry y="60" width="140" height="30" as="geometry" />
        </mxCell>
        <mxCell id="DoQtyo45TK2g_lEqhroI-47" style="edgeStyle=orthogonalEdgeStyle;rounded=0;orthogonalLoop=1;jettySize=auto;html=1;" edge="1" parent="1" source="DoQtyo45TK2g_lEqhroI-43" target="DoQtyo45TK2g_lEqhroI-20">
          <mxGeometry relative="1" as="geometry">
            <Array as="points">
              <mxPoint x="640" y="330" />
              <mxPoint x="414" y="330" />
            </Array>
          </mxGeometry>
        </mxCell>
        <mxCell id="DoQtyo45TK2g_lEqhroI-43" value="적 유닛2" style="swimlane;fontStyle=0;childLayout=stackLayout;horizontal=1;startSize=30;horizontalStack=0;resizeParent=1;resizeParentMax=0;resizeLast=0;collapsible=1;marginBottom=0;whiteSpace=wrap;html=1;" vertex="1" parent="1">
          <mxGeometry x="570" y="360" width="140" height="90" as="geometry" />
        </mxCell>
        <mxCell id="DoQtyo45TK2g_lEqhroI-45" value="FSM" style="text;strokeColor=none;fillColor=none;align=left;verticalAlign=middle;spacingLeft=4;spacingRight=4;overflow=hidden;points=[[0,0.5],[1,0.5]];portConstraint=eastwest;rotatable=0;whiteSpace=wrap;html=1;" vertex="1" parent="DoQtyo45TK2g_lEqhroI-43">
          <mxGeometry y="30" width="140" height="30" as="geometry" />
        </mxCell>
        <mxCell id="DoQtyo45TK2g_lEqhroI-46" value="..." style="text;strokeColor=none;fillColor=none;align=left;verticalAlign=middle;spacingLeft=4;spacingRight=4;overflow=hidden;points=[[0,0.5],[1,0.5]];portConstraint=eastwest;rotatable=0;whiteSpace=wrap;html=1;" vertex="1" parent="DoQtyo45TK2g_lEqhroI-43">
          <mxGeometry y="60" width="140" height="30" as="geometry" />
        </mxCell>
        <mxCell id="DoQtyo45TK2g_lEqhroI-52" style="edgeStyle=orthogonalEdgeStyle;rounded=0;orthogonalLoop=1;jettySize=auto;html=1;" edge="1" parent="1" source="DoQtyo45TK2g_lEqhroI-48" target="DoQtyo45TK2g_lEqhroI-20">
          <mxGeometry relative="1" as="geometry">
            <Array as="points">
              <mxPoint x="800" y="330" />
              <mxPoint x="414" y="330" />
            </Array>
          </mxGeometry>
        </mxCell>
        <mxCell id="DoQtyo45TK2g_lEqhroI-48" value="적 유닛N" style="swimlane;fontStyle=0;childLayout=stackLayout;horizontal=1;startSize=30;horizontalStack=0;resizeParent=1;resizeParentMax=0;resizeLast=0;collapsible=1;marginBottom=0;whiteSpace=wrap;html=1;" vertex="1" parent="1">
          <mxGeometry x="730" y="360" width="140" height="90" as="geometry" />
        </mxCell>
        <mxCell id="DoQtyo45TK2g_lEqhroI-50" value="FSM" style="text;strokeColor=none;fillColor=none;align=left;verticalAlign=middle;spacingLeft=4;spacingRight=4;overflow=hidden;points=[[0,0.5],[1,0.5]];portConstraint=eastwest;rotatable=0;whiteSpace=wrap;html=1;" vertex="1" parent="DoQtyo45TK2g_lEqhroI-48">
          <mxGeometry y="30" width="140" height="30" as="geometry" />
        </mxCell>
        <mxCell id="DoQtyo45TK2g_lEqhroI-51" value="..." style="text;strokeColor=none;fillColor=none;align=left;verticalAlign=middle;spacingLeft=4;spacingRight=4;overflow=hidden;points=[[0,0.5],[1,0.5]];portConstraint=eastwest;rotatable=0;whiteSpace=wrap;html=1;" vertex="1" parent="DoQtyo45TK2g_lEqhroI-48">
          <mxGeometry y="60" width="140" height="30" as="geometry" />
        </mxCell>
      </root>
    </mxGraphModel>
  </diagram>
</mxfile>
